<svg width="80" height="80" viewBox="0 0 80 80" fill="none" xmlns="http://www.w3.org/2000/svg">
<circle cx="40" cy="40" r="40" fill="#4983F4"/>
<path d="M12.0064 44.986C12.5051 44.59 12.7324 44.4067 12.6884 44.436C14.1258 43.248 15.2551 42.2727 16.0764 41.51C16.9124 40.7473 17.6164 39.948 18.1884 39.112C18.7604 38.276 19.0464 37.462 19.0464 36.67C19.0464 36.0687 18.9071 35.5993 18.6284 35.262C18.3498 34.9247 17.9318 34.756 17.3744 34.756C16.8171 34.756 16.3771 34.9687 16.0544 35.394C15.7464 35.8047 15.5924 36.3913 15.5924 37.154H11.9624C11.9918 35.9073 12.2558 34.866 12.7544 34.03C13.2678 33.194 13.9351 32.578 14.7564 32.182C15.5924 31.786 16.5164 31.588 17.5284 31.588C19.2738 31.588 20.5864 32.0353 21.4664 32.93C22.3611 33.8247 22.8084 34.9907 22.8084 36.428C22.8084 37.9973 22.2731 39.4567 21.2024 40.806C20.1318 42.1407 18.7678 43.446 17.1104 44.722H23.0504V47.78H12.0064V44.986ZM36.0148 35.218H29.1508V38.254C29.4441 37.9313 29.8548 37.6673 30.3828 37.462C30.9108 37.2567 31.4828 37.154 32.0988 37.154C33.1988 37.154 34.1081 37.4033 34.8268 37.902C35.5601 38.4007 36.0955 39.046 36.4328 39.838C36.7701 40.63 36.9388 41.488 36.9388 42.412C36.9388 44.128 36.4548 45.492 35.4868 46.504C34.5188 47.5013 33.1548 48 31.3948 48C30.2215 48 29.2021 47.802 28.3368 47.406C27.4715 46.9953 26.8041 46.4307 26.3348 45.712C25.8655 44.9933 25.6088 44.1647 25.5648 43.226H29.2388C29.3268 43.6807 29.5395 44.062 29.8768 44.37C30.2141 44.6633 30.6761 44.81 31.2628 44.81C31.9521 44.81 32.4655 44.59 32.8028 44.15C33.1401 43.71 33.3088 43.1233 33.3088 42.39C33.3088 41.6713 33.1328 41.1213 32.7808 40.74C32.4288 40.3587 31.9155 40.168 31.2408 40.168C30.7421 40.168 30.3315 40.2927 30.0088 40.542C29.6861 40.7767 29.4735 41.092 29.3708 41.488H25.7408V31.918H36.0148V35.218ZM39.0154 39.75C39.0154 37.2273 39.4994 35.24 40.4674 33.788C41.4501 32.336 43.0267 31.61 45.1974 31.61C47.3681 31.61 48.9374 32.336 49.9054 33.788C50.8881 35.24 51.3794 37.2273 51.3794 39.75C51.3794 42.302 50.8881 44.304 49.9054 45.756C48.9374 47.208 47.3681 47.934 45.1974 47.934C43.0267 47.934 41.4501 47.208 40.4674 45.756C39.4994 44.304 39.0154 42.302 39.0154 39.75ZM47.6834 39.75C47.6834 38.2687 47.5221 37.132 47.1994 36.34C46.8767 35.5333 46.2094 35.13 45.1974 35.13C44.1854 35.13 43.5181 35.5333 43.1954 36.34C42.8727 37.132 42.7114 38.2687 42.7114 39.75C42.7114 40.7473 42.7701 41.576 42.8874 42.236C43.0047 42.8813 43.2394 43.4093 43.5914 43.82C43.9581 44.216 44.4934 44.414 45.1974 44.414C45.9014 44.414 46.4294 44.216 46.7814 43.82C47.1481 43.4093 47.3901 42.8813 47.5074 42.236C47.6247 41.576 47.6834 40.7473 47.6834 39.75ZM63.201 48L60.055 43.27L57.283 48H53.015L57.965 40.146L52.905 32.556H57.283L60.385 37.22L63.113 32.556H67.381L62.475 40.344L67.579 48H63.201Z" fill="white"/>
</svg>
