<svg width="80" height="80" viewBox="0 0 80 80" fill="none" xmlns="http://www.w3.org/2000/svg">
<circle cx="40" cy="40" r="40" fill="#4983F4"/>
<path d="M35.161 58.828H35.1612C36.0726 58.8266 36.9466 58.4683 37.5916 57.8309C38.2367 57.1934 38.6 56.3289 38.6013 55.4266V55.4264V42.4199V42.2699H38.4513H35.161H35.011V42.4199V55.2764H28.7304V42.4199V42.2699H28.5804H25.29H25.14V42.4199L25.14 55.4264L25.14 55.4266C25.1414 56.3289 25.5047 57.1934 26.1498 57.8309C26.7947 58.4683 27.6688 58.8266 28.5801 58.828H28.5804H35.161Z" fill="white" stroke="white" stroke-width="0.3"/>
<path d="M54.8555 42.4567L54.9028 42.2699H54.7101H51.8311H51.7142L51.6856 42.3833L48.1308 56.4835L44.6426 42.3839L44.6144 42.2699H44.497H41.5488H41.3562L41.4034 42.4567L45.5163 58.7148L45.545 58.828H45.6617H50.5972H50.714L50.7426 58.7148L54.8555 42.4567Z" fill="white" stroke="white" stroke-width="0.3"/>
<path d="M38.5 17.2012H38.25V17.4512V24.9512V25.2012H38.5H41.5H41.75V24.9512V17.4512V17.2012H41.5H38.5Z" fill="white" stroke="white" stroke-width="0.5"/>
<path d="M48.3535 27.6248L48.1767 27.8015L48.3535 27.9783L50.4745 30.0993L50.6513 30.2761L50.8281 30.0993L56.0871 24.8403L56.2638 24.6636L56.0871 24.4868L53.9661 22.3643L53.7893 22.1874L53.6125 22.3643L48.3535 27.6248Z" fill="white" stroke="white" stroke-width="0.5"/>
<path d="M53.5 36.7012H53.25V36.9512V39.9512V40.2012H53.5H61H61.25V39.9512V36.9512V36.7012H61H53.5Z" fill="white" stroke="white" stroke-width="0.5"/>
<path d="M19 36.7012H18.75V36.9512V39.9512V40.2012H19H26.5H26.75V39.9512V36.9512V36.7012H26.5H19Z" fill="white" stroke="white" stroke-width="0.5"/>
<path d="M23.914 24.4868L23.7373 24.6636L23.914 24.8403L29.173 30.0993L29.3498 30.2761L29.5266 30.0993L31.6476 27.9783L31.8244 27.8015L31.6476 27.6248L26.3886 22.3643L26.2118 22.1874L26.035 22.3643L23.914 24.4868Z" fill="white" stroke="white" stroke-width="0.5"/>
<path d="M49 40.2012H49.25V39.9512V38.4512C49.25 35.9979 48.2755 33.6451 46.5407 31.9104C44.806 30.1757 42.4533 29.2012 40 29.2012C37.5467 29.2012 35.194 30.1757 33.4593 31.9104C31.7246 33.6451 30.75 35.9979 30.75 38.4512V39.9512V40.2012H31H34H34.25V39.9512V38.4512C34.25 36.9262 34.8558 35.4636 35.9341 34.3853C37.0125 33.307 38.475 32.7012 40 32.7012C41.525 32.7012 42.9875 33.307 44.0659 34.3853C45.1442 35.4636 45.75 36.9262 45.75 38.4512V39.9512V40.2012H46H49Z" fill="white" stroke="white" stroke-width="0.5"/>
</svg>
