<svg width="80" height="80" viewBox="0 0 80 80" fill="none" xmlns="http://www.w3.org/2000/svg">
<circle cx="40" cy="40" r="40" fill="#4983F4"/>
<path d="M58.1814 35.9337C57.0818 33.4588 55.4833 31.2375 53.4859 29.4087L51.8377 27.8964C51.7817 27.8465 51.7144 27.811 51.6415 27.7932C51.5687 27.7754 51.4925 27.7757 51.4198 27.7942C51.3472 27.8126 51.2801 27.8486 51.2246 27.899C51.169 27.9495 51.1267 28.0127 51.1014 28.0833L50.365 30.196C49.9062 31.5214 49.0623 32.8751 47.8672 34.2062C47.7879 34.2911 47.6973 34.3138 47.635 34.3195C47.5727 34.3251 47.4764 34.3138 47.3914 34.2345C47.3121 34.1665 47.2725 34.0646 47.2781 33.9626C47.4877 30.5529 46.4682 26.707 44.2365 22.5212C42.39 19.0435 39.8242 16.3304 36.6184 14.4386L34.2791 13.0622C33.9732 12.881 33.5824 13.1189 33.5994 13.4757L33.724 16.1945C33.809 18.0523 33.5938 19.6949 33.084 21.0599C32.4609 22.7308 31.566 24.2827 30.4219 25.6761C29.6256 26.6445 28.7232 27.5203 27.7314 28.2872C25.3429 30.1233 23.4008 32.476 22.0504 35.1691C20.7033 37.8856 20.0016 40.8765 20 43.9087C20 46.5822 20.5268 49.1706 21.5689 51.6118C22.5753 53.9622 24.0275 56.0954 25.8453 57.8933C27.6805 59.7058 29.8102 61.1331 32.1834 62.1243C34.6416 63.1552 37.2471 63.6763 39.9375 63.6763C42.6279 63.6763 45.2334 63.1552 47.6916 62.13C50.059 61.1446 52.2118 59.7075 54.0297 57.899C55.8648 56.0865 57.3035 53.9681 58.3061 51.6175C59.3467 49.183 59.8805 46.562 59.875 43.9144C59.875 41.1503 59.3086 38.4656 58.1814 35.9337Z" fill="white"/>
</svg>
