<svg width="80" height="80" viewBox="0 0 80 80" fill="none" xmlns="http://www.w3.org/2000/svg">
<circle cx="40" cy="40" r="40" fill="#4983F4"/>
<path d="M36.3002 46L32.0842 53.44C32.0417 53.5144 32.0146 53.5965 32.0045 53.6815C31.9944 53.7665 32.0014 53.8527 32.0252 53.935C32.0743 54.1024 32.1875 54.2436 32.3402 54.328C37.0072 56.938 42.9942 56.938 47.6582 54.328C47.8117 54.2441 47.9257 54.1028 47.9752 53.935C47.9989 53.8527 48.0058 53.7664 47.9955 53.6814C47.9852 53.5964 47.9579 53.5143 47.9152 53.44L43.7012 46C42.6401 46.8145 41.3388 47.2541 40.0012 47.25C38.6632 47.2543 37.3615 46.8147 36.3002 46Z" fill="white"/>
<path d="M36.8502 33.7238L32.5142 26.3528C32.4712 26.2789 32.4138 26.2144 32.3454 26.1631C32.2771 26.1117 32.1991 26.0746 32.1162 26.0538C31.9462 26.0126 31.7668 26.0403 31.6172 26.1308C27.0242 28.8668 24.0302 34.0508 23.9582 39.3958C23.9544 39.5709 24.0202 39.7403 24.1412 39.8668C24.2612 39.9918 24.4252 40.0618 24.5992 40.0628L33.1492 40.1328C32.9749 38.8066 33.2454 37.46 33.9182 36.3038C34.5832 35.1432 35.6143 34.2358 36.8502 33.7238Z" fill="white"/>
<path d="M46.8494 40.274L55.4004 40.205C55.486 40.2046 55.5706 40.187 55.6493 40.1534C55.7279 40.1197 55.7991 40.0706 55.8584 40.009C55.979 39.8826 56.0448 39.7136 56.0414 39.539C55.9684 34.193 52.9754 29.009 48.3824 26.274C48.2332 26.1833 48.0542 26.1553 47.8844 26.196C47.8011 26.2163 47.7227 26.2533 47.6539 26.3047C47.5852 26.3561 47.5276 26.4208 47.4844 26.495L43.1494 33.865C44.3852 34.377 45.4163 35.2843 46.0814 36.445C46.7814 37.656 47.0194 39.004 46.8494 40.275V40.274Z" fill="white"/>
<path d="M45 40C45 41.3261 44.4732 42.5979 43.5355 43.5355C42.5979 44.4732 41.3261 45 40 45C38.6739 45 37.4021 44.4732 36.4645 43.5355C35.5268 42.5979 35 41.3261 35 40C35 38.6739 35.5268 37.4021 36.4645 36.4645C37.4021 35.5268 38.6739 35 40 35C41.3261 35 42.5979 35.5268 43.5355 36.4645C44.4732 37.4021 45 38.6739 45 40Z" fill="white"/>
<path d="M58.8652 39.9997C58.8652 50.4187 50.4187 58.8652 39.9997 58.8652C29.5807 58.8652 21.1341 50.4187 21.1341 39.9997C21.1341 29.5807 29.5807 21.1341 39.9997 21.1341C50.4187 21.1341 58.8652 29.5807 58.8652 39.9997ZM39.9997 62.0169C52.1598 62.0169 62.0169 52.1598 62.0169 39.9997C62.0169 27.8396 52.1598 17.9824 39.9997 17.9824C27.8395 17.9824 17.9824 27.8396 17.9824 39.9997C17.9824 52.1598 27.8395 62.0169 39.9997 62.0169Z" fill="white" stroke="white"/>
</svg>
