<svg width="80" height="80" viewBox="0 0 80 80" fill="none" xmlns="http://www.w3.org/2000/svg">
<circle cx="40" cy="40" r="40" fill="#4983F4"/>
<path d="M59.6306 26.7013C59.4508 26.5089 59.2307 26.3533 58.9838 26.2443C58.737 26.1353 58.4688 26.0753 58.1961 26.0679C53.9592 25.964 48.598 21.7167 45.0533 20.05C42.8638 19.0236 41.4183 18.3469 40.3327 18.1686C40.1123 18.1385 39.8884 18.1391 39.6681 18.1704C38.5826 18.3486 37.137 19.0254 34.9493 20.0517C31.4047 21.7167 26.0435 25.964 21.8066 26.0679C21.5337 26.0756 21.2654 26.1359 21.0183 26.2448C20.7712 26.3538 20.5507 26.5092 20.3703 26.7013C19.9964 27.0979 19.8035 27.6162 19.833 28.1448C20.7432 45.4923 27.3801 56.2283 39.0257 62.4677C39.3284 62.6286 39.6644 62.7117 39.9986 62.7117C40.3327 62.7117 40.6687 62.6286 40.9733 62.4677C52.6189 56.2283 59.254 45.4923 60.166 28.1448C60.1972 27.6163 60.0048 27.0976 59.6306 26.7013ZM50.3703 33.524L40.5432 47.1192C40.1906 47.6073 39.6367 47.9309 39.0884 47.9309C38.5383 47.9309 37.9272 47.6488 37.5413 47.2871L30.6146 40.7915C30.3884 40.5787 30.2614 40.2906 30.2614 39.9902C30.2614 39.6898 30.3884 39.4016 30.6146 39.1888L32.326 37.5809C32.5534 37.3698 32.8606 37.2513 33.1807 37.2513C33.5009 37.2513 33.808 37.3698 34.0355 37.5809L38.5401 41.804L46.366 30.9746C46.547 30.7268 46.8253 30.5562 47.1401 30.5001C47.4549 30.444 47.7805 30.5069 48.046 30.6752L50.049 31.949C50.3137 32.1185 50.496 32.3793 50.5562 32.6744C50.6164 32.9695 50.5495 33.275 50.3703 33.524Z" fill="white"/>
</svg>
