<svg width="80" height="80" viewBox="0 0 80 80" fill="none" xmlns="http://www.w3.org/2000/svg">
<ellipse cx="40" cy="40" rx="40" ry="40" fill="#4983F4"/>
<g clip-path="url(#clip0_29_222)">
<path d="M56.4192 25.3808L56.4259 25.3514L56.4283 25.3213C56.5076 24.3031 56.1858 23.2895 55.5356 22.5013C54.8856 21.7136 53.9585 21.2129 52.9557 21.1109C52.9552 21.1108 52.9547 21.1108 52.9542 21.1107L29.8168 18.5856C29.8162 18.5856 29.8156 18.5855 29.8151 18.5854C29.3195 18.5275 28.8187 18.569 28.3413 18.7081C27.8633 18.8474 27.4183 19.0817 27.0322 19.3977C26.646 19.7137 26.3264 20.105 26.0917 20.549C25.857 20.993 25.7118 21.4807 25.664 21.984L25.6612 22.0139L25.6628 22.0439L27.5893 58.6394C27.4216 60.7388 28.9807 62.5987 31.0642 62.8265C31.0642 62.8265 31.0642 62.8265 31.0642 62.8265L44.1117 64.2552C44.1124 64.2553 44.113 64.2554 44.1136 64.2554C44.6096 64.3139 45.111 64.2728 45.5891 64.1339C46.0678 63.9948 46.5134 63.7605 46.9002 63.4444C47.287 63.1282 47.6072 62.7366 47.8424 62.2921C48.0733 61.8558 48.2177 61.3771 48.2682 60.8829L56.4192 25.3808ZM39.0918 45.7184L39.0917 45.7184C37.4591 47.0916 35.1646 47.8849 33.2425 48.3326C32.2874 48.5551 31.4366 48.6895 30.825 48.7681C30.601 48.7969 30.4095 48.8183 30.2569 48.8337L29.8531 36.839L29.8531 36.839L29.437 24.5329C29.5252 23.7858 29.8938 23.109 30.4649 22.642C31.0431 22.1693 31.7855 21.9471 32.5349 22.0253L32.5366 22.0255L49.7912 23.7516L49.7912 23.7517L49.796 23.7521C50.162 23.7841 50.52 23.8903 50.8486 24.0647C51.1772 24.2391 51.4696 24.4782 51.7082 24.7679C51.9469 25.0576 52.1269 25.3917 52.2375 25.7505C52.3455 26.1006 52.3853 26.4671 52.3552 26.829L48.7795 42.2967C48.6114 42.3041 48.3808 42.3174 48.0992 42.3417C47.4826 42.3949 46.6196 42.5009 45.6299 42.7132C43.6567 43.1364 41.1485 43.9891 39.0918 45.7184Z" fill="white" stroke="white" stroke-width="0.8"/>
</g>
<defs>
<clipPath id="clip0_29_222">
<rect width="47.6428" height="45.769" fill="white" transform="matrix(0.768586 -0.639746 0.630213 0.776422 5.92676 37.4766)"/>
</clipPath>
</defs>
</svg>
