<svg width="80" height="80" viewBox="0 0 80 80" fill="none" xmlns="http://www.w3.org/2000/svg">
<circle cx="40" cy="40" r="40" fill="#4983F4"/>
<path d="M22 24C20.9391 24 19.9217 24.4214 19.1716 25.1716C18.4214 25.9217 18 26.9391 18 28V50H22C22 51.5913 22.6321 53.1174 23.7574 54.2426C24.8826 55.3679 26.4087 56 28 56C29.5913 56 31.1174 55.3679 32.2426 54.2426C33.3679 53.1174 34 51.5913 34 50H46C46 51.5913 46.6321 53.1174 47.7574 54.2426C48.8826 55.3679 50.4087 56 52 56C53.5913 56 55.1174 55.3679 56.2426 54.2426C57.3679 53.1174 58 51.5913 58 50H62V40L56 32H50V24H22ZM36 28L44 36L36 44V38H24V34H36V28ZM50 35H55L58.94 40H50V35ZM28 47C28.7956 47 29.5587 47.3161 30.1213 47.8787C30.6839 48.4413 31 49.2044 31 50C31 50.7956 30.6839 51.5587 30.1213 52.1213C29.5587 52.6839 28.7956 53 28 53C27.2044 53 26.4413 52.6839 25.8787 52.1213C25.3161 51.5587 25 50.7956 25 50C25 49.2044 25.3161 48.4413 25.8787 47.8787C26.4413 47.3161 27.2044 47 28 47ZM52 47C52.7957 47 53.5587 47.3161 54.1213 47.8787C54.6839 48.4413 55 49.2044 55 50C55 50.7956 54.6839 51.5587 54.1213 52.1213C53.5587 52.6839 52.7957 53 52 53C51.2043 53 50.4413 52.6839 49.8787 52.1213C49.3161 51.5587 49 50.7956 49 50C49 49.2044 49.3161 48.4413 49.8787 47.8787C50.4413 47.3161 51.2043 47 52 47Z" fill="white"/>
</svg>
