<svg width="23" height="23" viewBox="0 0 23 23" fill="none" xmlns="http://www.w3.org/2000/svg">
<path fill-rule="evenodd" clip-rule="evenodd" d="M11.4583 0.0415039C5.13021 0.0415039 0 5.17171 0 11.4998C0 17.828 5.13021 22.9582 11.4583 22.9582C17.7865 22.9582 22.9167 17.828 22.9167 11.4998C22.9167 5.17171 17.7865 0.0415039 11.4583 0.0415039ZM16.425 9.56234C16.5165 9.4578 16.5861 9.33603 16.6298 9.20418C16.6735 9.07234 16.6904 8.93308 16.6795 8.79461C16.6685 8.65615 16.63 8.52126 16.5662 8.39789C16.5024 8.27452 16.4146 8.16516 16.3079 8.07624C16.2012 7.98732 16.0778 7.92063 15.9449 7.88011C15.812 7.83959 15.6724 7.82605 15.5343 7.84028C15.3961 7.85452 15.2622 7.89624 15.1404 7.963C15.0186 8.02975 14.9113 8.1202 14.825 8.229L10.3458 13.603L8.02813 11.2842C7.83166 11.0945 7.56854 10.9895 7.29542 10.9918C7.02229 10.9942 6.76103 11.1038 6.5679 11.2969C6.37476 11.49 6.26521 11.7513 6.26284 12.0244C6.26047 12.2975 6.36546 12.5607 6.55521 12.7571L9.68021 15.8821C9.78256 15.9844 9.9051 16.0643 10.04 16.1166C10.1749 16.1689 10.3193 16.1925 10.4638 16.1859C10.6084 16.1794 10.75 16.1428 10.8796 16.0784C11.0092 16.0141 11.124 15.9235 11.2167 15.8123L16.425 9.56234Z" fill="white"/>
</svg>
