<svg width="22" height="22" viewBox="0 0 22 22" fill="none" xmlns="http://www.w3.org/2000/svg">
<path fill-rule="evenodd" clip-rule="evenodd" d="M10.542 0.0410156C4.74313 0.0410156 0.0419922 4.74215 0.0419922 10.541C0.0419922 16.3399 4.74313 21.041 10.542 21.041C16.3409 21.041 21.042 16.3399 21.042 10.541C21.042 4.74215 16.3409 0.0410156 10.542 0.0410156ZM15.0933 8.76556C15.1771 8.66977 15.2409 8.55818 15.2809 8.43736C15.321 8.31654 15.3364 8.18893 15.3264 8.06205C15.3164 7.93516 15.2812 7.81155 15.2227 7.6985C15.1642 7.58545 15.0837 7.48523 14.9859 7.40375C14.8881 7.32227 14.7751 7.26116 14.6533 7.22403C14.5316 7.1869 14.4036 7.17449 14.277 7.18753C14.1504 7.20058 14.0277 7.23881 13.9161 7.29998C13.8045 7.36116 13.7062 7.44404 13.6271 7.54374L9.52254 12.4682L7.39867 10.3434C7.21864 10.1695 6.97752 10.0733 6.72725 10.0755C6.47697 10.0777 6.23756 10.1781 6.06057 10.3551C5.88359 10.532 5.78321 10.7714 5.78103 11.0217C5.77886 11.272 5.87507 11.5131 6.04895 11.6932L8.91258 14.5568C9.00637 14.6505 9.11866 14.7237 9.2423 14.7716C9.36593 14.8196 9.49819 14.8412 9.63066 14.8352C9.76312 14.8292 9.89288 14.7956 10.0117 14.7367C10.1304 14.6777 10.2356 14.5947 10.3205 14.4928L15.0933 8.76556Z" fill="#4983F4"/>
</svg>
