<svg width="138" height="31" viewBox="0 0 138 31" fill="none" xmlns="http://www.w3.org/2000/svg">
<circle cx="8.5" cy="17.5" r="8.5" fill="white"/>
<circle cx="25.5" cy="17.5" r="8.5" fill="white"/>
<circle cx="42.5" cy="17.5" r="8.5" fill="white"/>
<path d="M15.112 17.088C15.112 17.472 15.088 17.872 15.04 18.288H5.752C5.816 19.12 6.08 19.76 6.544 20.208C7.024 20.64 7.608 20.856 8.296 20.856C9.32 20.856 10.032 20.424 10.432 19.56H14.8C14.576 20.44 14.168 21.232 13.576 21.936C13 22.64 12.272 23.192 11.392 23.592C10.512 23.992 9.528 24.192 8.44 24.192C7.128 24.192 5.96 23.912 4.936 23.352C3.912 22.792 3.112 21.992 2.536 20.952C1.96 19.912 1.672 18.696 1.672 17.304C1.672 15.912 1.952 14.696 2.512 13.656C3.088 12.616 3.888 11.816 4.912 11.256C5.936 10.696 7.112 10.416 8.44 10.416C9.736 10.416 10.888 10.688 11.896 11.232C12.904 11.776 13.688 12.552 14.248 13.56C14.824 14.568 15.112 15.744 15.112 17.088ZM10.912 16.008C10.912 15.304 10.672 14.744 10.192 14.328C9.712 13.912 9.112 13.704 8.392 13.704C7.704 13.704 7.12 13.904 6.64 14.304C6.176 14.704 5.888 15.272 5.776 16.008H10.912Z" fill="#225DD0"/>
<path d="M18.672 17.304C18.672 15.912 18.952 14.696 19.512 13.656C20.088 12.616 20.88 11.816 21.888 11.256C22.912 10.696 24.08 10.416 25.392 10.416C27.072 10.416 28.472 10.856 29.592 11.736C30.728 12.616 31.472 13.856 31.824 15.456H27.456C27.088 14.432 26.376 13.92 25.32 13.92C24.568 13.92 23.968 14.216 23.52 14.808C23.072 15.384 22.848 16.216 22.848 17.304C22.848 18.392 23.072 19.232 23.52 19.824C23.968 20.4 24.568 20.688 25.32 20.688C26.376 20.688 27.088 20.176 27.456 19.152H31.824C31.472 20.72 30.728 21.952 29.592 22.848C28.456 23.744 27.056 24.192 25.392 24.192C24.08 24.192 22.912 23.912 21.888 23.352C20.88 22.792 20.088 21.992 19.512 20.952C18.952 19.912 18.672 18.696 18.672 17.304Z" fill="#225DD0"/>
<path d="M42.584 24.192C41.272 24.192 40.088 23.912 39.032 23.352C37.992 22.792 37.168 21.992 36.56 20.952C35.968 19.912 35.672 18.696 35.672 17.304C35.672 15.928 35.976 14.72 36.584 13.68C37.192 12.624 38.024 11.816 39.08 11.256C40.136 10.696 41.32 10.416 42.632 10.416C43.944 10.416 45.128 10.696 46.184 11.256C47.24 11.816 48.072 12.624 48.68 13.68C49.288 14.72 49.592 15.928 49.592 17.304C49.592 18.68 49.28 19.896 48.656 20.952C48.048 21.992 47.208 22.792 46.136 23.352C45.08 23.912 43.896 24.192 42.584 24.192ZM42.584 20.64C43.368 20.64 44.032 20.352 44.576 19.776C45.136 19.2 45.416 18.376 45.416 17.304C45.416 16.232 45.144 15.408 44.6 14.832C44.072 14.256 43.416 13.968 42.632 13.968C41.832 13.968 41.168 14.256 40.64 14.832C40.112 15.392 39.848 16.216 39.848 17.304C39.848 18.376 40.104 19.2 40.616 19.776C41.144 20.352 41.8 20.64 42.584 20.64Z" fill="#225DD0"/>
<path d="M56.592 12.504C56.992 11.88 57.544 11.376 58.248 10.992C58.952 10.608 59.776 10.416 60.72 10.416C61.824 10.416 62.824 10.696 63.72 11.256C64.616 11.816 65.32 12.616 65.832 13.656C66.36 14.696 66.624 15.904 66.624 17.28C66.624 18.656 66.36 19.872 65.832 20.928C65.32 21.968 64.616 22.776 63.72 23.352C62.824 23.912 61.824 24.192 60.72 24.192C59.792 24.192 58.968 24 58.248 23.616C57.544 23.232 56.992 22.736 56.592 22.128V30.384H52.488V10.608H56.592V12.504ZM62.448 17.28C62.448 16.256 62.16 15.456 61.584 14.88C61.024 14.288 60.328 13.992 59.496 13.992C58.68 13.992 57.984 14.288 57.408 14.88C56.848 15.472 56.568 16.28 56.568 17.304C56.568 18.328 56.848 19.136 57.408 19.728C57.984 20.32 58.68 20.616 59.496 20.616C60.312 20.616 61.008 20.32 61.584 19.728C62.16 19.12 62.448 18.304 62.448 17.28ZM72.8811 6.24V24H68.7771V6.24H72.8811ZM75.0392 17.28C75.0392 15.904 75.2952 14.696 75.8072 13.656C76.3352 12.616 77.0472 11.816 77.9432 11.256C78.8392 10.696 79.8392 10.416 80.9432 10.416C81.8872 10.416 82.7112 10.608 83.4152 10.992C84.1352 11.376 84.6872 11.88 85.0712 12.504V10.608H89.1752V24H85.0712V22.104C84.6712 22.728 84.1112 23.232 83.3912 23.616C82.6872 24 81.8632 24.192 80.9192 24.192C79.8312 24.192 78.8392 23.912 77.9432 23.352C77.0472 22.776 76.3352 21.968 75.8072 20.928C75.2952 19.872 75.0392 18.656 75.0392 17.28ZM85.0712 17.304C85.0712 16.28 84.7832 15.472 84.2072 14.88C83.6472 14.288 82.9592 13.992 82.1432 13.992C81.3272 13.992 80.6312 14.288 80.0552 14.88C79.4952 15.456 79.2152 16.256 79.2152 17.28C79.2152 18.304 79.4952 19.12 80.0552 19.728C80.6312 20.32 81.3272 20.616 82.1432 20.616C82.9592 20.616 83.6472 20.32 84.2072 19.728C84.7832 19.136 85.0712 18.328 85.0712 17.304ZM97.5923 24.192C96.4243 24.192 95.3843 23.992 94.4723 23.592C93.5603 23.192 92.8403 22.648 92.3123 21.96C91.7843 21.256 91.4883 20.472 91.4243 19.608H95.4803C95.5283 20.072 95.7443 20.448 96.1283 20.736C96.5123 21.024 96.9843 21.168 97.5443 21.168C98.0563 21.168 98.4483 21.072 98.7203 20.88C99.0083 20.672 99.1523 20.408 99.1523 20.088C99.1523 19.704 98.9523 19.424 98.5523 19.248C98.1523 19.056 97.5043 18.848 96.6083 18.624C95.6483 18.4 94.8483 18.168 94.2083 17.928C93.5683 17.672 93.0163 17.28 92.5523 16.752C92.0883 16.208 91.8563 15.48 91.8563 14.568C91.8563 13.8 92.0643 13.104 92.4803 12.48C92.9123 11.84 93.5363 11.336 94.3523 10.968C95.1843 10.6 96.1683 10.416 97.3043 10.416C98.9843 10.416 100.304 10.832 101.264 11.664C102.24 12.496 102.8 13.6 102.944 14.976H99.1523C99.0883 14.512 98.8803 14.144 98.5283 13.872C98.1923 13.6 97.7443 13.464 97.1843 13.464C96.7043 13.464 96.3363 13.56 96.0803 13.752C95.8243 13.928 95.6963 14.176 95.6963 14.496C95.6963 14.88 95.8963 15.168 96.2963 15.36C96.7123 15.552 97.3523 15.744 98.2163 15.936C99.2083 16.192 100.016 16.448 100.64 16.704C101.264 16.944 101.808 17.344 102.272 17.904C102.752 18.448 103 19.184 103.016 20.112C103.016 20.896 102.792 21.6 102.344 22.224C101.912 22.832 101.28 23.312 100.448 23.664C99.6323 24.016 98.6803 24.192 97.5923 24.192ZM112.991 20.52V24H110.903C109.415 24 108.255 23.64 107.423 22.92C106.591 22.184 106.175 20.992 106.175 19.344V14.016H104.543V10.608H106.175V7.344H110.279V10.608H112.967V14.016H110.279V19.392C110.279 19.792 110.375 20.08 110.567 20.256C110.759 20.432 111.079 20.52 111.527 20.52H112.991ZM117.197 24.192C116.477 24.192 115.885 23.984 115.421 23.568C114.973 23.136 114.749 22.608 114.749 21.984C114.749 21.344 114.973 20.808 115.421 20.376C115.885 19.944 116.477 19.728 117.197 19.728C117.901 19.728 118.477 19.944 118.925 20.376C119.389 20.808 119.621 21.344 119.621 21.984C119.621 22.608 119.389 23.136 118.925 23.568C118.477 23.984 117.901 24.192 117.197 24.192ZM126.155 6.24V24H122.051V6.24H126.155ZM136.593 20.52V24H134.505C133.017 24 131.857 23.64 131.025 22.92C130.193 22.184 129.777 20.992 129.777 19.344V14.016H128.145V10.608H129.777V7.344H133.881V10.608H136.569V14.016H133.881V19.392C133.881 19.792 133.977 20.08 134.169 20.256C134.361 20.432 134.681 20.52 135.129 20.52H136.593Z" fill="white"/>
</svg>
