<svg width="21" height="19" viewBox="0 0 21 19" fill="none" xmlns="http://www.w3.org/2000/svg">
<g clip-path="url(#clip0_229_463)">
<path d="M16.1496 7.7846C17.0755 8.22747 18.1241 8.35858 19.1335 8.15768V18.3327C19.1335 18.5758 19.0351 18.809 18.8601 18.9809C18.6851 19.1528 18.4477 19.2493 18.2001 19.2493H1.40013C1.15259 19.2493 0.915198 19.1528 0.740164 18.9809C0.56513 18.809 0.466797 18.5758 0.466797 18.3327V3.66602C0.466797 3.4229 0.56513 3.18974 0.740164 3.01783C0.915198 2.84593 1.15259 2.74935 1.40013 2.74935H13.6268C13.5652 3.04543 13.5335 3.35252 13.5335 3.66602C13.5319 4.75506 13.9268 5.80878 14.6469 6.63693L9.85707 10.7088L3.87066 5.71752L2.66293 7.11452L9.86827 13.1233L16.1496 7.7846ZM18.2001 6.41602C17.8324 6.41602 17.4683 6.34488 17.1286 6.20668C16.7889 6.06848 16.4802 5.86592 16.2202 5.61056C15.9602 5.3552 15.754 5.05204 15.6133 4.71839C15.4726 4.38475 15.4001 4.02715 15.4001 3.66602C15.4001 3.30488 15.4726 2.94728 15.6133 2.61364C15.754 2.27999 15.9602 1.97683 16.2202 1.72147C16.4802 1.46611 16.7889 1.26355 17.1286 1.12535C17.4683 0.987146 17.8324 0.916016 18.2001 0.916016C18.9427 0.916016 19.6549 1.20575 20.18 1.72147C20.7051 2.2372 21.0001 2.93667 21.0001 3.66602C21.0001 4.39536 20.7051 5.09483 20.18 5.61056C19.6549 6.12628 18.9427 6.41602 18.2001 6.41602Z" fill="#A5C2FA"/>
</g>
<defs>
<clipPath id="clip0_229_463">
<rect width="21" height="19" fill="white"/>
</clipPath>
</defs>
</svg>
