<svg width="21" height="19" viewBox="0 0 21 19" fill="none" xmlns="http://www.w3.org/2000/svg">
<path fill-rule="evenodd" clip-rule="evenodd" d="M2.4746 0.605827C2.70425 0.398357 2.98001 0.237415 3.2836 0.133665C3.58719 0.0299155 3.91169 -0.0142726 4.23558 0.00402944C4.55947 0.0223314 4.87537 0.102706 5.16234 0.239825C5.44931 0.376945 5.70079 0.56768 5.90012 0.79939L8.25598 3.53776C8.68778 4.04008 8.84003 4.69439 8.66941 5.31189L7.95149 7.91251C7.91438 8.04721 7.91638 8.1883 7.95731 8.32209C7.99825 8.45588 8.07672 8.57782 8.18511 8.67607L11.4098 11.5938C11.5185 11.692 11.6535 11.7632 11.8017 11.8002C11.9498 11.8372 12.106 11.8389 12.255 11.8051L15.128 11.1556C15.4648 11.0794 15.8163 11.0735 16.156 11.1383C16.4957 11.2031 16.8147 11.3369 17.0888 11.5296L20.1154 13.66C21.2034 14.4259 21.3031 15.8806 20.3293 16.7606L18.9722 17.9884C18.001 18.8672 16.5494 19.2531 15.1963 18.8221C11.7329 17.7195 8.58839 15.9256 5.99593 13.5733C3.39633 11.228 1.41362 8.38331 0.194862 5.25014C-0.280248 4.02701 0.146301 2.71245 1.11752 1.8337L2.4746 0.605827Z" fill="#4983F4"/>
</svg>
